<svg xmlns="http://www.w3.org/2000/svg" xmlns:xlink="http://www.w3.org/1999/xlink" width="500" height="500" contentScriptType="text/ecmascript" contentStyleType="text/css" preserveAspectRatio="xMidYMid meet" version="1.2" viewBox="0 0 375 375" zoomAndPan="magnify"><defs><clipPath id="clip1" xml:id="clip1"><path d="M 72.097656 158.335938 L 91.597656 158.335938 L 91.597656 193.585938 L 72.097656 193.585938 Z M 72.097656 158.335938"/></clipPath></defs><g id="surface1" xml:id="surface1"><path style="stroke:none;fill-rule:nonzero;fill:#e35f21;fill-opacity:1" d="M 44.4375 154.46875 C 43.738281 154.46875 43.039062 154.503906 42.34375 154.570312 C 41.644531 154.640625 40.953125 154.742188 40.265625 154.878906 C 39.582031 155.015625 38.902344 155.1875 38.234375 155.390625 C 37.5625 155.59375 36.902344 155.828125 36.257812 156.09375 C 35.609375 156.363281 34.980469 156.664062 34.359375 156.992188 C 33.742188 157.324219 33.144531 157.683594 32.5625 158.070312 C 31.980469 158.460938 31.417969 158.875 30.878906 159.320312 C 30.335938 159.765625 29.816406 160.234375 29.324219 160.730469 C 28.828125 161.222656 28.359375 161.742188 27.914062 162.285156 C 27.46875 162.824219 27.054688 163.386719 26.664062 163.96875 C 26.277344 164.550781 25.917969 165.148438 25.585938 165.765625 C 25.257812 166.382812 24.957031 167.015625 24.6875 167.664062 C 24.421875 168.308594 24.1875 168.96875 23.984375 169.636719 C 23.78125 170.308594 23.609375 170.988281 23.472656 171.671875 C 23.335938 172.359375 23.234375 173.050781 23.164062 173.75 C 23.097656 174.445312 23.0625 175.144531 23.0625 175.84375 C 23.0625 176.542969 23.097656 177.242188 23.164062 177.9375 C 23.234375 178.636719 23.335938 179.328125 23.472656 180.011719 C 23.609375 180.699219 23.78125 181.378906 23.984375 182.046875 C 24.1875 182.71875 24.421875 183.375 24.6875 184.023438 C 24.957031 184.671875 25.257812 185.300781 25.585938 185.917969 C 25.917969 186.535156 26.277344 187.136719 26.664062 187.71875 C 27.054688 188.300781 27.46875 188.863281 27.914062 189.402344 C 28.359375 189.945312 28.828125 190.460938 29.324219 190.957031 C 29.816406 191.453125 30.335938 191.921875 30.878906 192.367188 C 31.417969 192.8125 31.980469 193.226562 32.5625 193.617188 C 33.144531 194.003906 33.742188 194.363281 34.359375 194.695312 C 34.980469 195.023438 35.609375 195.324219 36.257812 195.589844 C 36.902344 195.859375 37.5625 196.09375 38.234375 196.296875 C 38.902344 196.5 39.582031 196.671875 40.265625 196.808594 C 40.953125 196.945312 41.644531 197.046875 42.34375 197.117188 C 43.039062 197.183594 43.738281 197.21875 44.4375 197.21875 C 45.136719 197.21875 45.835938 197.183594 46.53125 197.117188 C 47.230469 197.046875 47.921875 196.945312 48.605469 196.808594 C 49.292969 196.671875 49.972656 196.5 50.640625 196.296875 C 51.3125 196.09375 51.96875 195.859375 52.617188 195.589844 C 53.265625 195.324219 53.894531 195.023438 54.511719 194.695312 C 55.128906 194.363281 55.730469 194.003906 56.3125 193.617188 C 56.894531 193.226562 57.457031 192.8125 57.996094 192.367188 C 58.539062 191.921875 59.058594 191.453125 59.550781 190.957031 C 60.046875 190.460938 60.515625 189.945312 60.960938 189.402344 C 61.40625 188.863281 61.820312 188.300781 62.210938 187.71875 C 62.597656 187.136719 62.957031 186.535156 63.289062 185.917969 C 63.617188 185.300781 63.917969 184.671875 64.183594 184.023438 C 64.453125 183.375 64.6875 182.71875 64.890625 182.046875 C 65.09375 181.378906 65.265625 180.699219 65.402344 180.011719 C 65.539062 179.328125 65.640625 178.636719 65.710938 177.9375 C 65.777344 177.242188 65.8125 176.542969 65.8125 175.84375 C 65.8125 175.144531 65.777344 174.445312 65.710938 173.75 C 65.640625 173.050781 65.539062 172.359375 65.402344 171.671875 C 65.265625 170.988281 65.09375 170.308594 64.890625 169.636719 C 64.6875 168.96875 64.453125 168.308594 64.183594 167.664062 C 63.917969 167.015625 63.617188 166.382812 63.289062 165.765625 C 62.957031 165.148438 62.597656 164.550781 62.210938 163.96875 C 61.820312 163.386719 61.40625 162.824219 60.960938 162.285156 C 60.515625 161.742188 60.046875 161.222656 59.550781 160.730469 C 59.058594 160.234375 58.539062 159.765625 57.996094 159.320312 C 57.457031 158.875 56.894531 158.460938 56.3125 158.070312 C 55.730469 157.683594 55.128906 157.324219 54.511719 156.992188 C 53.894531 156.664062 53.265625 156.363281 52.617188 156.09375 C 51.96875 155.828125 51.3125 155.59375 50.640625 155.390625 C 49.972656 155.1875 49.292969 155.015625 48.605469 154.878906 C 47.921875 154.742188 47.230469 154.640625 46.53125 154.570312 C 45.835938 154.503906 45.136719 154.46875 44.4375 154.46875 Z M 44.4375 154.46875"/><path style="stroke:none;fill-rule:nonzero;fill:#fff6ea;fill-opacity:1" d="M 65.785156 154.46875 C 65.085938 154.46875 64.386719 154.503906 63.691406 154.570312 C 62.996094 154.640625 62.304688 154.742188 61.617188 154.878906 C 60.929688 155.015625 60.25 155.1875 59.582031 155.390625 C 58.910156 155.59375 58.253906 155.828125 57.605469 156.09375 C 56.960938 156.363281 56.328125 156.664062 55.710938 156.992188 C 55.09375 157.324219 54.492188 157.683594 53.910156 158.070312 C 53.328125 158.460938 52.769531 158.875 52.226562 159.320312 C 51.683594 159.765625 51.167969 160.234375 50.671875 160.730469 C 50.175781 161.222656 49.707031 161.742188 49.261719 162.285156 C 48.820312 162.824219 48.402344 163.386719 48.015625 163.96875 C 47.625 164.550781 47.265625 165.148438 46.9375 165.765625 C 46.605469 166.382812 46.304688 167.015625 46.039062 167.664062 C 45.769531 168.308594 45.535156 168.96875 45.332031 169.636719 C 45.128906 170.308594 44.957031 170.988281 44.824219 171.671875 C 44.6875 172.359375 44.582031 173.050781 44.515625 173.75 C 44.445312 174.445312 44.410156 175.144531 44.410156 175.84375 C 44.410156 176.542969 44.445312 177.242188 44.515625 177.9375 C 44.582031 178.636719 44.6875 179.328125 44.824219 180.011719 C 44.957031 180.699219 45.128906 181.378906 45.332031 182.046875 C 45.535156 182.71875 45.769531 183.375 46.039062 184.023438 C 46.304688 184.671875 46.605469 185.300781 46.9375 185.917969 C 47.265625 186.535156 47.625 187.136719 48.015625 187.71875 C 48.402344 188.300781 48.820312 188.863281 49.261719 189.402344 C 49.707031 189.945312 50.175781 190.460938 50.671875 190.957031 C 51.167969 191.453125 51.683594 191.921875 52.226562 192.367188 C 52.769531 192.8125 53.328125 193.226562 53.910156 193.617188 C 54.492188 194.003906 55.09375 194.363281 55.710938 194.695312 C 56.328125 195.023438 56.960938 195.324219 57.605469 195.589844 C 58.253906 195.859375 58.910156 196.09375 59.582031 196.296875 C 60.25 196.5 60.929688 196.671875 61.617188 196.808594 C 62.304688 196.945312 62.996094 197.046875 63.691406 197.117188 C 64.386719 197.183594 65.085938 197.21875 65.785156 197.21875 C 66.488281 197.21875 67.183594 197.183594 67.882812 197.117188 C 68.578125 197.046875 69.269531 196.945312 69.957031 196.808594 C 70.644531 196.671875 71.320312 196.5 71.992188 196.296875 C 72.660156 196.09375 73.320312 195.859375 73.964844 195.589844 C 74.613281 195.324219 75.246094 195.023438 75.863281 194.695312 C 76.480469 194.363281 77.078125 194.003906 77.660156 193.617188 C 78.242188 193.226562 78.804688 192.8125 79.347656 192.367188 C 79.886719 191.921875 80.40625 191.453125 80.902344 190.957031 C 81.394531 190.460938 81.867188 189.945312 82.308594 189.402344 C 82.753906 188.863281 83.171875 188.300781 83.558594 187.71875 C 83.949219 187.136719 84.308594 186.535156 84.636719 185.917969 C 84.96875 185.300781 85.265625 184.671875 85.535156 184.023438 C 85.800781 183.375 86.039062 182.71875 86.242188 182.046875 C 86.445312 181.378906 86.613281 180.699219 86.75 180.011719 C 86.886719 179.328125 86.988281 178.636719 87.058594 177.9375 C 87.128906 177.242188 87.160156 176.542969 87.160156 175.84375 C 87.160156 175.144531 87.128906 174.445312 87.058594 173.75 C 86.988281 173.050781 86.886719 172.359375 86.75 171.671875 C 86.613281 170.988281 86.445312 170.308594 86.242188 169.636719 C 86.039062 168.96875 85.800781 168.308594 85.535156 167.664062 C 85.265625 167.015625 84.96875 166.382812 84.636719 165.765625 C 84.308594 165.148438 83.949219 164.550781 83.558594 163.96875 C 83.171875 163.386719 82.753906 162.824219 82.308594 162.285156 C 81.867188 161.742188 81.394531 161.222656 80.902344 160.730469 C 80.40625 160.234375 79.886719 159.765625 79.347656 159.320312 C 78.804688 158.875 78.242188 158.460938 77.660156 158.070312 C 77.078125 157.683594 76.480469 157.324219 75.863281 156.992188 C 75.246094 156.664062 74.613281 156.363281 73.964844 156.09375 C 73.320312 155.828125 72.660156 155.59375 71.992188 155.390625 C 71.320312 155.1875 70.644531 155.015625 69.957031 154.878906 C 69.269531 154.742188 68.578125 154.640625 67.882812 154.570312 C 67.183594 154.503906 66.488281 154.46875 65.785156 154.46875 Z M 65.785156 154.46875"/><path style="stroke:none;fill-rule:nonzero;fill:#ffd230;fill-opacity:1" d="M 81.847656 154.46875 C 81.148438 154.46875 80.449219 154.503906 79.753906 154.570312 C 79.058594 154.640625 78.367188 154.742188 77.679688 154.878906 C 76.992188 155.015625 76.3125 155.1875 75.644531 155.390625 C 74.972656 155.59375 74.316406 155.828125 73.667969 156.09375 C 73.023438 156.363281 72.390625 156.664062 71.773438 156.992188 C 71.15625 157.324219 70.554688 157.683594 69.972656 158.070312 C 69.390625 158.460938 68.828125 158.875 68.289062 159.320312 C 67.746094 159.765625 67.230469 160.234375 66.734375 160.730469 C 66.238281 161.222656 65.769531 161.742188 65.324219 162.285156 C 64.882812 162.824219 64.464844 163.386719 64.078125 163.96875 C 63.6875 164.550781 63.328125 165.148438 62.996094 165.765625 C 62.667969 166.382812 62.367188 167.015625 62.101562 167.664062 C 61.832031 168.308594 61.597656 168.96875 61.394531 169.636719 C 61.191406 170.308594 61.019531 170.988281 60.882812 171.671875 C 60.75 172.359375 60.644531 173.050781 60.578125 173.75 C 60.507812 174.445312 60.472656 175.144531 60.472656 175.84375 C 60.472656 176.542969 60.507812 177.242188 60.578125 177.9375 C 60.644531 178.636719 60.75 179.328125 60.882812 180.011719 C 61.019531 180.699219 61.191406 181.378906 61.394531 182.046875 C 61.597656 182.71875 61.832031 183.375 62.101562 184.023438 C 62.367188 184.671875 62.667969 185.300781 62.996094 185.917969 C 63.328125 186.535156 63.6875 187.136719 64.078125 187.71875 C 64.464844 188.300781 64.882812 188.863281 65.324219 189.402344 C 65.769531 189.945312 66.238281 190.460938 66.734375 190.957031 C 67.230469 191.453125 67.746094 191.921875 68.289062 192.367188 C 68.828125 192.8125 69.390625 193.226562 69.972656 193.617188 C 70.554688 194.003906 71.15625 194.363281 71.773438 194.695312 C 72.390625 195.023438 73.023438 195.324219 73.667969 195.589844 C 74.316406 195.859375 74.972656 196.09375 75.644531 196.296875 C 76.3125 196.5 76.992188 196.671875 77.679688 196.808594 C 78.367188 196.945312 79.058594 197.046875 79.753906 197.117188 C 80.449219 197.183594 81.148438 197.21875 81.847656 197.21875 C 82.550781 197.21875 83.246094 197.183594 83.945312 197.117188 C 84.640625 197.046875 85.332031 196.945312 86.019531 196.808594 C 86.707031 196.671875 87.382812 196.5 88.054688 196.296875 C 88.722656 196.09375 89.382812 195.859375 90.027344 195.589844 C 90.675781 195.324219 91.308594 195.023438 91.925781 194.695312 C 92.542969 194.363281 93.140625 194.003906 93.722656 193.617188 C 94.304688 193.226562 94.867188 192.8125 95.410156 192.367188 C 95.949219 191.921875 96.46875 191.453125 96.964844 190.957031 C 97.457031 190.460938 97.929688 189.945312 98.371094 189.402344 C 98.816406 188.863281 99.234375 188.300781 99.621094 187.71875 C 100.011719 187.136719 100.371094 186.535156 100.699219 185.917969 C 101.03125 185.300781 101.328125 184.671875 101.597656 184.023438 C 101.863281 183.375 102.101562 182.71875 102.304688 182.046875 C 102.507812 181.378906 102.675781 180.699219 102.8125 180.011719 C 102.949219 179.328125 103.050781 178.636719 103.121094 177.9375 C 103.191406 177.242188 103.222656 176.542969 103.222656 175.84375 C 103.222656 175.144531 103.191406 174.445312 103.121094 173.75 C 103.050781 173.050781 102.949219 172.359375 102.8125 171.671875 C 102.675781 170.988281 102.507812 170.308594 102.304688 169.636719 C 102.101562 168.96875 101.863281 168.308594 101.597656 167.664062 C 101.328125 167.015625 101.03125 166.382812 100.699219 165.765625 C 100.371094 165.148438 100.011719 164.550781 99.621094 163.96875 C 99.234375 163.386719 98.816406 162.824219 98.371094 162.285156 C 97.929688 161.742188 97.457031 161.222656 96.964844 160.730469 C 96.46875 160.234375 95.949219 159.765625 95.410156 159.320312 C 94.867188 158.875 94.304688 158.460938 93.722656 158.070312 C 93.140625 157.683594 92.542969 157.324219 91.925781 156.992188 C 91.308594 156.664062 90.675781 156.363281 90.027344 156.09375 C 89.382812 155.828125 88.722656 155.59375 88.054688 155.390625 C 87.382812 155.1875 86.707031 155.015625 86.019531 154.878906 C 85.332031 154.742188 84.640625 154.640625 83.945312 154.570312 C 83.246094 154.503906 82.550781 154.46875 81.847656 154.46875 Z M 81.847656 154.46875"/><g clip-path="url(#clip1)" clip-rule="nonzero"><path style="stroke:none;fill-rule:nonzero;fill:#e35f21;fill-opacity:1" d="M 91.402344 181.0625 C 91.402344 173.550781 77.625 174.039062 77.625 169.503906 C 77.625 167.308594 79.714844 166.238281 82.140625 166.238281 C 86.214844 166.238281 86.9375 168.871094 88.785156 168.871094 C 90.09375 168.871094 90.722656 168.042969 90.722656 167.113281 C 90.722656 164.960938 87.472656 163.328125 84.355469 162.761719 L 84.355469 160.683594 C 84.355469 159.386719 83.308594 158.332031 82.019531 158.332031 C 80.726562 158.332031 79.679688 159.386719 79.679688 160.683594 L 79.679688 162.835938 C 76.285156 163.613281 73.359375 165.984375 73.359375 169.847656 C 73.359375 177.0625 87.132812 176.769531 87.132812 181.839844 C 87.132812 183.59375 85.242188 185.351562 82.140625 185.351562 C 77.480469 185.351562 75.929688 182.179688 74.039062 182.179688 C 73.117188 182.179688 72.292969 182.960938 72.292969 184.136719 C 72.292969 186.003906 75.40625 188.25 79.683594 188.875 L 79.679688 188.890625 L 79.679688 191.238281 C 79.679688 192.535156 80.726562 193.589844 82.019531 193.589844 C 83.308594 193.589844 84.355469 192.535156 84.355469 191.238281 L 84.355469 188.890625 C 84.355469 188.863281 84.34375 188.839844 84.339844 188.816406 C 88.191406 188.09375 91.402344 185.570312 91.402344 181.0625 Z M 91.402344 181.0625"/></g><g style="fill:#000;fill-opacity:1"><g><path style="stroke:none" d="M 10.828125 -7.96875 C 11.609375 -7.96875 12.4375 -8.453125 13.3125 -9.421875 C 14.1875 -10.421875 14.75 -11.453125 15 -12.515625 L 20.484375 -10.3125 C 19.078125 -7.03125 17.234375 -4.421875 14.953125 -2.484375 C 12.921875 -0.765625 10.84375 0.09375 8.71875 0.09375 C 6.71875 0.09375 5.09375 -0.8125 3.84375 -2.625 C 2.53125 -4.5625 1.875 -7.109375 1.875 -10.265625 C 1.875 -13.421875 2.285156 -16.46875 3.109375 -19.40625 C 3.941406 -22.34375 5.109375 -24.976562 6.609375 -27.3125 C 8.109375 -29.644531 9.894531 -31.53125 11.96875 -32.96875 C 14.050781 -34.40625 16.328125 -35.125 18.796875 -35.125 C 20.390625 -35.125 21.75 -34.515625 22.875 -33.296875 C 23.976562 -32.046875 24.53125 -30.40625 24.53125 -28.375 L 24.53125 -27.765625 C 24.53125 -27.578125 24.515625 -27.375 24.484375 -27.15625 L 18.1875 -25.46875 C 17.8125 -26.25 17.363281 -26.640625 16.84375 -26.640625 C 16.332031 -26.640625 15.796875 -26.34375 15.234375 -25.75 C 14.671875 -25.15625 14.113281 -24.382812 13.5625 -23.4375 C 13.019531 -22.5 12.5 -21.441406 12 -20.265625 C 11.5 -19.097656 11.0625 -17.921875 10.6875 -16.734375 C 9.8125 -14.109375 9.375 -11.988281 9.375 -10.375 C 9.375 -8.769531 9.859375 -7.96875 10.828125 -7.96875 Z M 10.828125 -7.96875" transform="translate(110.244889, 192.875413)"/></g></g><g style="fill:#000;fill-opacity:1"><g><path style="stroke:none" d="M 14.625 -0.75 C 12.21875 -8.65625 10.96875 -13.171875 10.875 -14.296875 L 10.265625 -14.109375 C 10.015625 -12.671875 9.640625 -10.671875 9.140625 -8.109375 C 8.640625 -5.546875 8.25 -3.5 7.96875 -1.96875 L 0.1875 0.046875 C 3.4375 -15.671875 5.421875 -26.832031 6.140625 -33.4375 C 9.765625 -34.5625 13.828125 -35.125 18.328125 -35.125 C 21.703125 -35.125 23.707031 -33.953125 24.34375 -31.609375 C 24.53125 -30.890625 24.625 -30 24.625 -28.9375 C 24.625 -27.875 24.398438 -26.722656 23.953125 -25.484375 C 23.515625 -24.242188 22.921875 -23.0625 22.171875 -21.9375 C 20.609375 -19.65625 18.6875 -17.90625 16.40625 -16.6875 C 17.625 -14.0625 18.707031 -11.582031 19.65625 -9.25 C 20.613281 -6.925781 21.421875 -4.96875 22.078125 -3.375 Z M 15.09375 -28.46875 L 13.03125 -28.421875 L 11.484375 -20.765625 C 12.734375 -20.890625 14.3125 -21.6875 16.21875 -23.15625 C 18.1875 -24.664062 19.171875 -25.90625 19.171875 -26.875 C 19.171875 -27.78125 18.3125 -28.296875 16.59375 -28.421875 C 16.09375 -28.453125 15.59375 -28.46875 15.09375 -28.46875 Z M 15.09375 -28.46875" transform="translate(130.121664, 192.875413)"/></g></g><g style="fill:#000;fill-opacity:1"><g><path style="stroke:none" d="M 12.5625 -20.53125 C 13.59375 -23.101562 15.28125 -27.859375 17.625 -34.796875 L 25.09375 -33.15625 C 23.363281 -29.65625 21.8125 -26.476562 20.4375 -23.625 L 17.4375 -17.4375 C 16.84375 -16.1875 16.253906 -14.96875 15.671875 -13.78125 C 15.097656 -12.59375 14.578125 -11.484375 14.109375 -10.453125 C 13.640625 -8.078125 12.90625 -5.171875 11.90625 -1.734375 L 3.703125 -0.703125 L 5.90625 -10.359375 C 5.90625 -14.234375 5.75 -18.515625 5.4375 -23.203125 C 5.125 -27.898438 4.9375 -30.609375 4.875 -31.328125 L 4.78125 -32.359375 L 12.609375 -35.359375 L 12.609375 -27.015625 L 12.5625 -22.3125 Z M 12.5625 -20.53125" transform="translate(151.451692, 192.875413)"/></g></g><g style="fill:#000;fill-opacity:1"><g><path style="stroke:none" d="M -0.140625 0.046875 C 3.140625 -14.546875 5.390625 -25.863281 6.609375 -33.90625 C 10.046875 -34.9375 12.625 -35.453125 14.34375 -35.453125 C 16.0625 -35.453125 17.410156 -35.207031 18.390625 -34.71875 C 19.378906 -34.238281 20.1875 -33.59375 20.8125 -32.78125 C 21.90625 -31.3125 22.453125 -29.1875 22.453125 -26.40625 C 22.453125 -24.613281 22.125 -22.878906 21.46875 -21.203125 C 20.8125 -19.535156 19.9375 -18.050781 18.84375 -16.75 C 17.75 -15.457031 16.484375 -14.425781 15.046875 -13.65625 C 13.609375 -12.894531 12.125 -12.515625 10.59375 -12.515625 L 10.078125 -12.515625 C 9.484375 -9.890625 8.84375 -6.25 8.15625 -1.59375 Z M 13.265625 -29.640625 C 12.453125 -25.097656 11.71875 -21.078125 11.0625 -17.578125 C 12.1875 -17.859375 13.234375 -18.765625 14.203125 -20.296875 C 15.265625 -21.984375 15.796875 -23.894531 15.796875 -26.03125 C 15.796875 -27.21875 15.53125 -28.113281 15 -28.71875 C 14.46875 -29.332031 13.890625 -29.640625 13.265625 -29.640625 Z M 13.265625 -29.640625" transform="translate(169.875211, 192.875413)"/></g></g><g style="fill:#000;fill-opacity:1"><g><path style="stroke:none" d="M 4.921875 -28.234375 L 5.15625 -34.375 C 6.78125 -34.25 8.421875 -34.1875 10.078125 -34.1875 C 14.453125 -34.1875 18.71875 -34.453125 22.875 -34.984375 L 22.359375 -32.40625 C 22.203125 -31.6875 22.050781 -30.941406 21.90625 -30.171875 C 21.769531 -29.410156 21.640625 -28.75 21.515625 -28.1875 C 20.796875 -28 20.078125 -27.863281 19.359375 -27.78125 C 18.640625 -27.707031 17.9375 -27.609375 17.25 -27.484375 C 16.6875 -25.066406 16.125 -22.078125 15.5625 -18.515625 C 14.3125 -10.640625 13.4375 -4.90625 12.9375 -1.3125 L 4.3125 0.046875 C 6.84375 -11.828125 8.546875 -21.128906 9.421875 -27.859375 C 8.671875 -27.953125 7.921875 -27.984375 7.171875 -27.953125 C 6.421875 -27.921875 5.671875 -28.015625 4.921875 -28.234375 Z M 4.921875 -28.234375" transform="translate(188.064335, 192.875413)"/></g></g><g style="fill:#000;fill-opacity:1"><g><path style="stroke:none" d="M 20.203125 -21.9375 C 20.203125 -24.539062 19.453125 -25.84375 17.953125 -25.84375 C 16.046875 -25.84375 14.328125 -24.898438 12.796875 -23.015625 C 11.578125 -21.515625 10.53125 -19.46875 9.65625 -16.875 C 8.96875 -14.75 8.625 -12.75 8.625 -10.875 C 8.625 -9.625 9.15625 -8.6875 10.21875 -8.0625 C 10.53125 -7.84375 10.890625 -7.734375 11.296875 -7.734375 C 12.734375 -7.734375 14.003906 -8.222656 15.109375 -9.203125 C 16.222656 -10.191406 17.15625 -11.40625 17.90625 -12.84375 C 18.65625 -14.28125 19.222656 -15.816406 19.609375 -17.453125 C 20.003906 -19.097656 20.203125 -20.59375 20.203125 -21.9375 Z M 26.875 -24.90625 C 26.875 -22.988281 26.597656 -20.875 26.046875 -18.5625 C 25.503906 -16.25 24.757812 -14.125 23.8125 -12.1875 C 22.875 -10.25 21.785156 -8.515625 20.546875 -6.984375 C 19.316406 -5.453125 18.03125 -4.15625 16.6875 -3.09375 C 13.90625 -0.90625 11.234375 0.1875 8.671875 0.1875 C 6.515625 0.1875 4.8125 -0.59375 3.5625 -2.15625 C 2.1875 -3.875 1.5 -6.375 1.5 -9.65625 C 1.5 -13.21875 2.328125 -17.0625 3.984375 -21.1875 C 5.640625 -25.320312 7.8125 -28.765625 10.5 -31.515625 C 13.40625 -34.453125 16.453125 -35.921875 19.640625 -35.921875 C 22.265625 -35.921875 24.191406 -34.859375 25.421875 -32.734375 C 26.390625 -31.015625 26.875 -28.40625 26.875 -24.90625 Z M 26.875 -24.90625" transform="translate(205.456513, 192.875413)"/></g></g><g style="fill:#000;fill-opacity:1"><g><path style="stroke:none" transform="translate(229.1305, 192.875413)"/></g></g><g style="fill:#000;fill-opacity:1"><g><path style="stroke:none" d="M 9.140625 -8.203125 L 7.21875 -1.3125 C 6.5 -1.21875 5.660156 -1.109375 4.703125 -0.984375 C 3.753906 -0.859375 2.8125 -0.738281 1.875 -0.625 C 0.9375 -0.519531 -0.03125 -0.40625 -1.03125 -0.28125 C 0.25 -4.53125 1.332031 -8.125 2.21875 -11.0625 C 3.113281 -14 3.84375 -16.410156 4.40625 -18.296875 C 4.96875 -20.191406 5.519531 -22.070312 6.0625 -23.9375 C 6.613281 -25.800781 7.144531 -27.597656 7.65625 -29.328125 C 8.175781 -31.066406 8.640625 -32.65625 9.046875 -34.09375 C 14.828125 -34.5 19.234375 -35 22.265625 -35.59375 C 21.984375 -32.5 21.75 -28.84375 21.5625 -24.625 C 21.15625 -16.207031 20.8125 -8.453125 20.53125 -1.359375 C 19.59375 -1.203125 18.675781 -1.0625 17.78125 -0.9375 C 16.894531 -0.8125 15.972656 -0.671875 15.015625 -0.515625 C 14.066406 -0.359375 13.203125 -0.21875 12.421875 -0.09375 C 12.765625 -3.09375 13.0625 -5.796875 13.3125 -8.203125 Z M 10.265625 -12.984375 L 13.734375 -13.21875 C 13.734375 -13.40625 13.753906 -13.722656 13.796875 -14.171875 C 13.847656 -14.628906 13.90625 -15.15625 13.96875 -15.75 C 14.21875 -19.09375 14.484375 -22.207031 14.765625 -25.09375 L 15.09375 -29.265625 L 14.34375 -29.21875 Z M 10.265625 -12.984375" transform="translate(238.506337, 192.875413)"/></g></g><g style="fill:#000;fill-opacity:1"><g><path style="stroke:none" d="M 14.625 -0.75 C 12.21875 -8.65625 10.96875 -13.171875 10.875 -14.296875 L 10.265625 -14.109375 C 10.015625 -12.671875 9.640625 -10.671875 9.140625 -8.109375 C 8.640625 -5.546875 8.25 -3.5 7.96875 -1.96875 L 0.1875 0.046875 C 3.4375 -15.671875 5.421875 -26.832031 6.140625 -33.4375 C 9.765625 -34.5625 13.828125 -35.125 18.328125 -35.125 C 21.703125 -35.125 23.707031 -33.953125 24.34375 -31.609375 C 24.53125 -30.890625 24.625 -30 24.625 -28.9375 C 24.625 -27.875 24.398438 -26.722656 23.953125 -25.484375 C 23.515625 -24.242188 22.921875 -23.0625 22.171875 -21.9375 C 20.609375 -19.65625 18.6875 -17.90625 16.40625 -16.6875 C 17.625 -14.0625 18.707031 -11.582031 19.65625 -9.25 C 20.613281 -6.925781 21.421875 -4.96875 22.078125 -3.375 Z M 15.09375 -28.46875 L 13.03125 -28.421875 L 11.484375 -20.765625 C 12.734375 -20.890625 14.3125 -21.6875 16.21875 -23.15625 C 18.1875 -24.664062 19.171875 -25.90625 19.171875 -26.875 C 19.171875 -27.78125 18.3125 -28.296875 16.59375 -28.421875 C 16.09375 -28.453125 15.59375 -28.46875 15.09375 -28.46875 Z M 15.09375 -28.46875" transform="translate(259.273815, 192.875413)"/></g></g><g style="fill:#000;fill-opacity:1"><g><path style="stroke:none" d="M 23.203125 -1.40625 C 21.703125 -1.46875 20.128906 -1.5 18.484375 -1.5 C 16.847656 -1.5 15.125 -1.46875 13.3125 -1.40625 C 12.6875 -5.4375 12.0625 -9.796875 11.4375 -14.484375 L 10.546875 -13.5 C 10.328125 -12.53125 10.082031 -11.34375 9.8125 -9.9375 C 9.550781 -8.53125 9.28125 -7.113281 9 -5.6875 C 8.71875 -4.269531 8.421875 -2.75 8.109375 -1.125 L 0.328125 0.046875 C 3.703125 -15.578125 5.71875 -27.269531 6.375 -35.03125 C 7.125 -34.9375 7.957031 -34.863281 8.875 -34.8125 C 9.800781 -34.769531 10.703125 -34.71875 11.578125 -34.65625 C 12.453125 -34.59375 13.375 -34.5625 14.34375 -34.5625 C 14.3125 -34.4375 14.265625 -34.203125 14.203125 -33.859375 C 14.140625 -33.515625 14.0625 -33.09375 13.96875 -32.59375 C 13.875 -32.09375 13.769531 -31.535156 13.65625 -30.921875 C 13.550781 -30.316406 13.394531 -29.503906 13.1875 -28.484375 C 12.988281 -27.472656 12.734375 -26.09375 12.421875 -24.34375 L 12.703125 -24.390625 C 13.578125 -25.734375 14.484375 -27.15625 15.421875 -28.65625 C 17.296875 -31.625 18.609375 -33.671875 19.359375 -34.796875 C 22.960938 -35.078125 26.15625 -35.4375 28.9375 -35.875 C 23.488281 -28.5 19.765625 -23.195312 17.765625 -19.96875 C 18.453125 -16.75 19.28125 -13.628906 20.25 -10.609375 C 21.21875 -7.597656 22.203125 -4.53125 23.203125 -1.40625 Z M 23.203125 -1.40625" transform="translate(280.603844, 192.875413)"/></g></g><g style="fill:#000;fill-opacity:1"><g><path style="stroke:none" transform="translate(302.765469, 192.875413)"/></g></g></g></svg>